<mxfile host="app.diagrams.net" modified="2023-06-27T18:04:24.439Z" agent="5.0 (Windows NT 10.0; Win64; x64) AppleWebKit/537.36 (KHTML, like Gecko) Chrome/114.0.0.0 Safari/537.36" etag="0OY-tr3WNfTK41p4s7Kb" version="21.0.8" type="github">
  <diagram name="Page-1" id="Tw7ME1NhR49eth3bOCWb">
    <mxGraphModel dx="1050" dy="573" grid="1" gridSize="10" guides="1" tooltips="1" connect="1" arrows="1" fold="1" page="1" pageScale="1" pageWidth="827" pageHeight="1169" math="0" shadow="0">
      <root>
        <mxCell id="0" />
        <mxCell id="1" parent="0" />
        <mxCell id="RdsYLBOWNvupgHX_7Fgr-1" value="" style="rounded=0;whiteSpace=wrap;html=1;strokeColor=#000000;" vertex="1" parent="1">
          <mxGeometry x="70" y="40" width="770" height="290" as="geometry" />
        </mxCell>
        <mxCell id="RdsYLBOWNvupgHX_7Fgr-2" value="Connect Wallet" style="rounded=1;whiteSpace=wrap;html=1;fillColor=#e1d5e7;strokeColor=#9673a6;" vertex="1" parent="1">
          <mxGeometry x="707" y="50" width="120" height="30" as="geometry" />
        </mxCell>
        <mxCell id="RdsYLBOWNvupgHX_7Fgr-3" value="HomePage" style="text;html=1;strokeColor=none;fillColor=none;align=center;verticalAlign=middle;whiteSpace=wrap;rounded=0;" vertex="1" parent="1">
          <mxGeometry x="290" y="120" width="290" height="90" as="geometry" />
        </mxCell>
        <mxCell id="RdsYLBOWNvupgHX_7Fgr-4" value="Sell Carbon Credits" style="rounded=1;whiteSpace=wrap;html=1;fillColor=#d5e8d4;strokeColor=#82b366;" vertex="1" parent="1">
          <mxGeometry x="360" y="190" width="150" height="30" as="geometry" />
        </mxCell>
        <mxCell id="RdsYLBOWNvupgHX_7Fgr-6" value="NextJS projects" style="rounded=0;whiteSpace=wrap;html=1;" vertex="1" parent="1">
          <mxGeometry x="70" y="370" width="770" height="310" as="geometry" />
        </mxCell>
        <mxCell id="RdsYLBOWNvupgHX_7Fgr-8" value="My Profile" style="rounded=1;whiteSpace=wrap;html=1;fillColor=#e1d5e7;strokeColor=#9673a6;" vertex="1" parent="1">
          <mxGeometry x="550" y="50" width="130" height="30" as="geometry" />
        </mxCell>
        <mxCell id="RdsYLBOWNvupgHX_7Fgr-9" value="" style="rounded=0;whiteSpace=wrap;html=1;" vertex="1" parent="1">
          <mxGeometry x="80" y="750" width="760" height="340" as="geometry" />
        </mxCell>
        <mxCell id="RdsYLBOWNvupgHX_7Fgr-10" value="&lt;h1&gt;&lt;span style=&quot;background-color: initial;&quot;&gt;My profile&lt;/span&gt;&lt;/h1&gt;&lt;h1&gt;&lt;br&gt;&lt;/h1&gt;" style="text;html=1;strokeColor=none;fillColor=none;spacing=5;spacingTop=-20;whiteSpace=wrap;overflow=hidden;rounded=0;" vertex="1" parent="1">
          <mxGeometry x="380" y="770" width="190" height="120" as="geometry" />
        </mxCell>
        <mxCell id="RdsYLBOWNvupgHX_7Fgr-11" value="Whole Info of transactions" style="rounded=1;whiteSpace=wrap;html=1;" vertex="1" parent="1">
          <mxGeometry x="310" y="830" width="260" height="60" as="geometry" />
        </mxCell>
        <mxCell id="RdsYLBOWNvupgHX_7Fgr-12" value="Sell" style="rounded=1;whiteSpace=wrap;html=1;fillColor=#e1d5e7;strokeColor=#9673a6;" vertex="1" parent="1">
          <mxGeometry x="310" y="920" width="110" height="30" as="geometry" />
        </mxCell>
        <mxCell id="RdsYLBOWNvupgHX_7Fgr-17" style="edgeStyle=orthogonalEdgeStyle;rounded=0;orthogonalLoop=1;jettySize=auto;html=1;" edge="1" parent="1" source="RdsYLBOWNvupgHX_7Fgr-13">
          <mxGeometry relative="1" as="geometry">
            <mxPoint x="770" y="680" as="targetPoint" />
          </mxGeometry>
        </mxCell>
        <mxCell id="RdsYLBOWNvupgHX_7Fgr-13" value="Buy" style="rounded=1;whiteSpace=wrap;html=1;fillColor=#e1d5e7;strokeColor=#9673a6;" vertex="1" parent="1">
          <mxGeometry x="450" y="920" width="120" height="30" as="geometry" />
        </mxCell>
        <mxCell id="RdsYLBOWNvupgHX_7Fgr-16" style="edgeStyle=orthogonalEdgeStyle;rounded=0;orthogonalLoop=1;jettySize=auto;html=1;" edge="1" parent="1" source="RdsYLBOWNvupgHX_7Fgr-15" target="RdsYLBOWNvupgHX_7Fgr-12">
          <mxGeometry relative="1" as="geometry" />
        </mxCell>
        <mxCell id="RdsYLBOWNvupgHX_7Fgr-15" value="Form&lt;br&gt;&lt;br&gt;No. Of Tokens to Sell" style="rounded=0;whiteSpace=wrap;html=1;fillColor=#f8cecc;strokeColor=#b85450;" vertex="1" parent="1">
          <mxGeometry x="150" y="905" width="130" height="60" as="geometry" />
        </mxCell>
        <mxCell id="RdsYLBOWNvupgHX_7Fgr-18" value="Carbon Credits" style="rounded=1;whiteSpace=wrap;html=1;fillColor=#f8cecc;strokeColor=#b85450;" vertex="1" parent="1">
          <mxGeometry x="110" y="410" width="100" height="40" as="geometry" />
        </mxCell>
        <mxCell id="RdsYLBOWNvupgHX_7Fgr-20" value="Carbon Credits" style="rounded=1;whiteSpace=wrap;html=1;fillColor=#f8cecc;strokeColor=#b85450;" vertex="1" parent="1">
          <mxGeometry x="110" y="470" width="100" height="40" as="geometry" />
        </mxCell>
        <mxCell id="RdsYLBOWNvupgHX_7Fgr-21" value="Carbon Credits" style="rounded=1;whiteSpace=wrap;html=1;fillColor=#f8cecc;strokeColor=#b85450;" vertex="1" parent="1">
          <mxGeometry x="110" y="530" width="100" height="40" as="geometry" />
        </mxCell>
        <mxCell id="RdsYLBOWNvupgHX_7Fgr-22" value="Carbon Credits" style="rounded=1;whiteSpace=wrap;html=1;fillColor=#f8cecc;strokeColor=#b85450;" vertex="1" parent="1">
          <mxGeometry x="110" y="585" width="100" height="40" as="geometry" />
        </mxCell>
        <mxCell id="RdsYLBOWNvupgHX_7Fgr-23" value="0x" style="text;html=1;strokeColor=none;fillColor=none;align=center;verticalAlign=middle;whiteSpace=wrap;rounded=0;" vertex="1" parent="1">
          <mxGeometry x="270" y="415" width="60" height="30" as="geometry" />
        </mxCell>
        <mxCell id="RdsYLBOWNvupgHX_7Fgr-24" value="Selling Price using platform tokens" style="text;html=1;strokeColor=none;fillColor=none;align=center;verticalAlign=middle;whiteSpace=wrap;rounded=0;" vertex="1" parent="1">
          <mxGeometry x="395" y="415" width="130" height="30" as="geometry" />
        </mxCell>
        <mxCell id="RdsYLBOWNvupgHX_7Fgr-26" style="edgeStyle=orthogonalEdgeStyle;rounded=0;orthogonalLoop=1;jettySize=auto;html=1;entryX=0;entryY=0.5;entryDx=0;entryDy=0;" edge="1" parent="1" source="RdsYLBOWNvupgHX_7Fgr-25" target="RdsYLBOWNvupgHX_7Fgr-4">
          <mxGeometry relative="1" as="geometry" />
        </mxCell>
        <mxCell id="RdsYLBOWNvupgHX_7Fgr-25" value="Form Pop-up to Sell&amp;nbsp;" style="rounded=0;whiteSpace=wrap;html=1;fillColor=#f8cecc;strokeColor=#b85450;" vertex="1" parent="1">
          <mxGeometry x="150" y="110" width="120" height="60" as="geometry" />
        </mxCell>
        <mxCell id="RdsYLBOWNvupgHX_7Fgr-27" value="" style="rounded=0;whiteSpace=wrap;html=1;" vertex="1" parent="1">
          <mxGeometry x="70" y="1169" width="770" height="341" as="geometry" />
        </mxCell>
        <mxCell id="RdsYLBOWNvupgHX_7Fgr-28" value="Swapping Tokens with Crypto" style="text;html=1;strokeColor=none;fillColor=none;align=center;verticalAlign=middle;whiteSpace=wrap;rounded=0;" vertex="1" parent="1">
          <mxGeometry x="330" y="1320" width="200" height="30" as="geometry" />
        </mxCell>
      </root>
    </mxGraphModel>
  </diagram>
</mxfile>
